<?xml version="1.0" encoding="utf-8"?>
<!-- Generator: Adobe Illustrator 23.1.1, SVG Export Plug-In . SVG Version: 6.00 Build 0)  -->
<svg version="1.1" id="Layer_1" xmlns="http://www.w3.org/2000/svg" xmlns:xlink="http://www.w3.org/1999/xlink" x="0px" y="0px"
	 viewBox="0 0 312.7 162.8" style="enable-background:new 0 0 312.7 162.8;" xml:space="preserve">
<style type="text/css">
	.st0{fill:#FFFFFF;}
</style>
<title>jukitours</title>
<path class="st0" d="M85.4,18.5v35.1c0,3.4,0.4,13.3-4.7,18.5c-5,4.9-15.5,4.9-22.1,4.9H45.4c-7.2,0-13.6,0.3-18.9-4.9
	c-4.9-4.8-4.4-13.2-4.4-18.5v-2h18.3c0,1.7-0.5,8.7,3.3,10.3c2.2,0.9,17.6,1.2,19.8-0.2c3.3-2,2.9-7.3,2.9-11.7V18.5H85.4z"/>
<path class="st0" d="M114.6,18.5v28.7c0,3.7-0.5,10.3,2.5,13.2s8,2.3,10.7,2.3h15.4c1.7,0,6.9,0.4,9.7-2.2c2.5-2.5,2-7.5,2-12.8
	V18.5h18.9v34.7c0,6.6,0.7,13.1-4.9,18.5c-6,5.7-13.7,5.4-21.8,5.4h-28c-6.7,0-12,0.5-18.3-5.5c-5.9-5.8-5.3-15.7-5.3-20.3V18.5
	H114.6z"/>
<path class="st0" d="M203,18.5V40h9.1l24.2-21.5h25.5l-33.3,28.5L266,77.1h-27L211.6,55H203v22h-19V18.5H203z"/>
<path class="st0" d="M290.5,18.5v58.6h-19V18.5H290.5z"/>
<path class="st0" d="M22,100.7h16.7v42.7h12v-42.7h17V86.8H22V100.7z M124.3,108.7c0-4.1,0.4-12.7-2.8-16.9c-3.7-5-9.3-4.9-14-4.9
	H88.1c-4.7,0-10.4-0.2-14,4.9c-3.5,4.8-3.2,12.9-3.2,16.9v11.7c0,3.8,0,13.4,3.2,18c3.3,4.8,10.6,5.1,14.3,5.1h18.8
	c2.8,0,10.9-0.2,14.3-5.1c3.2-4.6,2.8-13.1,2.8-18L124.3,108.7z M112.3,118.9c0,3.2-0.2,6-0.6,6.9c-1.7,4.3-5.4,3.7-7.3,3.7H90.8
	c-2,0-5.6,0.6-7.3-3.7c-0.4-0.8-0.6-3.7-0.6-6.9v-7.7c0-3.5,0.2-6,0.6-6.9c1.7-4.2,5.4-3.7,7.3-3.7h13.5c2,0,5.6-0.5,7.3,3.7
	c0.4,0.8,0.6,3.8,0.6,6.9L112.3,118.9z M180.4,86.8h-12V115c0,5.1,0.3,10-1.3,12.4c-1.8,2.6-5.1,2.2-6.2,2.2h-9.8
	c-1.7,0-4.9,0.4-6.8-2.2s-1.6-9.1-1.6-12.7V86.8h-12v31.7c0,4.4-0.4,14.1,3.4,19.6c3.9,5.8,7.3,5.3,11.6,5.3h17.7
	c5.2,0,10,0.3,13.8-5.2c3.6-5.2,3.1-11.4,3.1-17.8L180.4,86.8z M234.5,113.3c0.9-4.4,0.7-17.1-1.7-21.6c-2.8-5.2-7.3-4.9-11.6-4.9
	h-34.4v56.6h12v-14.7h16.6c1.4,0,4.8-0.2,6.1,1.6c1.4,1.8,1.2,6.6,1.2,13.1h12v-4.3c0-4.6,0.4-12.8-3.3-16.1c-1-0.7-2.1-1.3-3.2-1.8
	C231.1,119.7,233.5,118.7,234.5,113.3L234.5,113.3z M222.8,111.5c-1.3,2.9-5.1,2.7-6.8,2.7h-17.3v-13.5h17.3c1.7,0,5.5-0.4,6.6,2.8
	C223.4,105.2,223.4,110,222.8,111.5L222.8,111.5z M289.5,116.7c-2.8-7.2-10.4-6.3-14-6.5l-14.7-0.5c-2.5,0-6,0.2-7.1-2.3
	c-0.4-1.4-0.4-2.8-0.1-4.2c1.1-3,3.6-2.5,5.2-2.5h13.5c3.2,0.1,4.7,0.6,5,5.7h11.8c0-2.9,0.1-10.5-1.2-13.3
	c-2.4-5.3-7.1-6.2-10.4-6.2H257c-5.6,0-11.3-0.6-14.3,6.5c-1.8,4.4-1.8,16.4-0.1,20.8c2.5,6.8,8.9,6.6,12.8,6.7l15.7,0.5
	c3.4,0.1,6.5-0.2,7.3,2.1c0.5,1.4,0.5,2.9,0,4.4c-1.1,1.9-4.6,1.8-6.3,1.8h-14.1c-2.3,0-4.4,0.4-4.7-4.8h-11.9
	c0,3.7,0.1,9.8,1.4,12.6c2.7,5.6,8,6.1,10.4,6.1h19.8c4.1,0,13.1-0.1,16.2-7.3C291,131.5,291.2,121.2,289.5,116.7L289.5,116.7z"/>
<path class="st0" d="M22,100.7v1h15.7v42.7h14v-42.7h17V85.8H21v15.8h1V100.7h1V87.8h43.8v11.8h-17v42.7h-10V99.7H22V100.7L22,100.7
	z M124.3,108.7h1c0-0.8,0-1.8,0-2.9c0-2.5-0.1-5-0.5-7.6c-0.3-2.5-1.1-4.9-2.5-7.1l-0.8,0.6l0.8-0.6c-1.7-2.3-4.2-4-7-4.7
	c-2.5-0.5-5-0.8-7.5-0.7H87c-2.4-0.1-4.8,0.2-7.2,0.7c-2.7,0.7-5,2.3-6.6,4.6l0.8,0.6l-0.8-0.6c-1.6,2.4-2.6,5.1-3,8
	c-0.4,2.6-0.5,5.2-0.5,7.8v13.3c0,2.9,0.1,5.9,0.4,8.8c0.4,3.5,1.2,7.2,3,9.8c0.9,1.3,2.1,2.4,3.5,3.1c3.9,2.3,8.8,2.3,11.7,2.4
	h18.8c2.4,0,4.8-0.2,7.2-0.7c1.5-0.3,3-0.9,4.4-1.6c1.4-0.8,2.7-1.8,3.6-3.1c1.4-2.2,2.2-4.6,2.5-7.2c0.3-2.6,0.5-5.2,0.5-7.8
	c0-1.3,0-2.6,0-3.6v-11.6h-2v11.7c0,1.1,0,2.3,0,3.6c0,2.5-0.1,5-0.4,7.5c-0.2,2.3-1,4.4-2.2,6.4c-0.8,1.1-1.8,1.9-2.9,2.5
	c-1.8,0.9-3.8,1.5-5.8,1.8c-1.6,0.2-3.1,0.3-4.7,0.3H88.4c-2.4,0-4.7-0.2-7-0.7c-1.3-0.3-2.5-0.8-3.6-1.4c-1.1-0.6-2.1-1.5-2.8-2.5
	c-1.4-2.1-2.3-5.5-2.7-8.9c-0.3-2.8-0.5-5.7-0.4-8.6V107c0-2.5,0.1-5,0.5-7.5c0.3-2.6,1.2-5,2.6-7.2l0,0c1.3-1.9,3.2-3.3,5.5-3.8
	c2.1-0.5,4.4-0.7,6.6-0.7h20.9c2.3-0.1,4.7,0.1,7,0.6c2.3,0.6,4.4,1.9,5.8,3.9l0,0c1.2,1.9,1.9,4,2.2,6.2c0.3,2.4,0.5,4.8,0.4,7.2
	c0,1.1,0,2.1,0,2.9L124.3,108.7z M112.3,118.9h-1c0,1.6-0.1,3-0.2,4.2c0,0.5-0.1,1-0.2,1.5c0,0.2-0.1,0.5-0.2,0.7v0.1
	c-0.4,1.1-1.2,2.1-2.2,2.6c-0.9,0.4-1.8,0.5-2.8,0.5h-1.4H90.8h-1.4c-0.9,0-1.9-0.1-2.8-0.5c-1.1-0.5-1.9-1.5-2.2-2.6v-0.1
	c-0.1-0.2-0.1-0.5-0.2-0.7c-0.2-1.9-0.4-3.8-0.3-5.7v-7.7c0-1.7,0-3.2,0.2-4.4c0-0.5,0.1-0.9,0.2-1.4c0-0.2,0.1-0.5,0.2-0.7l0,0
	c0.4-1.1,1.2-2.1,2.3-2.6c0.9-0.4,1.9-0.5,2.8-0.5h16c1,0,1.9,0.1,2.8,0.5c1.1,0.5,1.9,1.5,2.3,2.6l0,0c0.1,0.2,0.2,0.5,0.2,0.7
	c0.2,1.9,0.3,3.8,0.3,5.7v7.7h2v-7.7c0-1.6-0.1-3.1-0.2-4.4c0-0.6-0.1-1.2-0.2-1.7c-0.1-0.4-0.2-0.9-0.3-1.3l-0.9,0.4l0.9-0.4
	c-0.6-1.6-1.8-2.9-3.3-3.7c-1.2-0.5-2.4-0.7-3.7-0.7h-16c-1.3-0.1-2.5,0.2-3.7,0.7c-1.5,0.8-2.7,2.1-3.3,3.7l0.9,0.4l-0.9-0.4
	c-0.2,0.4-0.3,0.8-0.3,1.2c-0.3,2-0.4,4.1-0.3,6.1v7.7c0,1.6,0,3.2,0.2,4.4c0,0.6,0.1,1.2,0.2,1.7c0.1,0.4,0.2,0.8,0.3,1.2l0.9-0.4
	l-0.9,0.4c0.6,1.6,1.7,2.9,3.2,3.7c1.1,0.5,2.4,0.7,3.6,0.7h1.4h13.5h1.4c1.2,0,2.5-0.2,3.6-0.7c1.5-0.8,2.7-2.1,3.2-3.7l-0.9-0.4
	l0.9,0.4c0.2-0.4,0.3-0.8,0.3-1.2c0.3-2,0.4-4,0.3-6.1L112.3,118.9z M180.4,86.8v-1h-13V115c0,1.4,0,2.8,0,4.1
	c0,1.6-0.1,3.1-0.2,4.7c-0.1,1.1-0.4,2.1-0.9,3l0.8,0.6l-0.8-0.6c-0.5,0.7-1.2,1.2-2,1.4c-0.7,0.2-1.5,0.3-2.2,0.3h-1.1h-9.8h-1.5
	c-0.8,0-1.7-0.1-2.4-0.3c-0.8-0.3-1.6-0.8-2.1-1.5l-0.8,0.6l0.8-0.6c-0.7-1.2-1-2.5-1.1-3.9c-0.2-1.7-0.3-3.5-0.3-5.3
	c0-1.1,0-2.1,0-3V85.8h-14v32.7c0,0.8,0,1.7,0,2.7c0,2.9,0.1,5.8,0.5,8.7c0.4,3.1,1.4,6.1,3,8.7l0,0c2.1,3.8,6.2,6.1,10.6,5.7h21
	c2.4,0.1,4.7-0.2,7-0.8c2.6-0.9,4.8-2.6,6.3-4.8l0,0c1.4-2.1,2.4-4.5,2.8-7.1c0.4-2.5,0.6-5,0.5-7.5c0-1.3,0-2.5,0-3.8V85.8h-1
	L180.4,86.8l-0.9,0v33.5c0,1.3,0,2.6,0,3.8c0.1,2.4-0.1,4.8-0.5,7.2c-0.4,2.3-1.2,4.4-2.5,6.3l0,0c-1.2,1.9-3.1,3.4-5.2,4.1
	c-2.1,0.6-4.2,0.8-6.4,0.7h-21c-3.7,0.4-7.2-1.6-8.9-4.9l0,0c-1.5-2.4-2.4-5.1-2.7-7.9c-0.4-2.8-0.5-5.6-0.5-8.4c0-1,0-2,0-2.7V87.8
	h10v26.7c0,0.8,0,1.9,0,3c0,1.8,0.1,3.7,0.3,5.5c0.1,1.7,0.6,3.3,1.5,4.8l0,0c0.8,1.1,1.8,1.9,3.1,2.3c1,0.3,2,0.5,3.1,0.4h1.5h9.8
	c0.2,0,0.6,0,1.1,0c1,0,1.9-0.1,2.9-0.4c1.2-0.4,2.3-1.2,3-2.2l0,0c0.7-1.2,1.1-2.5,1.2-3.9c0.2-1.6,0.3-3.3,0.2-4.9
	c0-1.3,0-2.7,0-4.1V87.8h11L180.4,86.8L180.4,86.8L180.4,86.8z M234.5,113.3l1,0.2c0.4-2.4,0.6-4.8,0.5-7.2c0-2.8-0.2-5.6-0.5-8.3
	c-0.2-2.3-0.8-4.6-1.8-6.7l0,0c-1.1-2.2-2.9-3.8-5.2-4.7c-1.9-0.6-4-0.9-6-0.8h-36.7v58.5h14v-14.7h16.6c0.9,0,1.7,0.1,2.6,0.2
	c0.4,0.1,0.7,0.2,1.1,0.4c0.3,0.1,0.5,0.3,0.7,0.6l0,0l0,0c0.2,0.3,0.4,0.6,0.5,1c0.2,0.9,0.4,1.8,0.4,2.8c0.1,1.2,0.1,2.5,0.1,4.1
	s0,2.9,0,4.6v1h14v-5.3c0-0.9,0-1.9,0-3c0-2.5-0.1-5-0.5-7.5c-0.3-2.4-1.4-4.6-3.1-6.4l0,0c-0.5-0.4-1-0.7-1.6-1
	c-0.6-0.3-1.2-0.6-1.9-0.9l-0.4,0.9l0.5,0.9c1.5-0.7,2.8-1.6,4-2.7c1.5-1.7,2.4-3.7,2.7-5.9L234.5,113.3l0.9,0.2L234.5,113.3
	l-1.1-0.1c-0.2,1.8-0.9,3.5-2.1,4.9c-1,1-2.2,1.7-3.5,2.3l-1.8,1l1.9,0.8c0.7,0.3,1.3,0.6,1.8,0.8c0.4,0.2,0.8,0.5,1.2,0.8l0.6-0.8
	l-0.6,0.8c1.4,1.4,2.2,3.3,2.4,5.2c0.4,2.3,0.5,4.7,0.5,7.1c0,1.1,0,2.1,0,3v3.3h-11v1h1c0-1.7,0-3.2,0-4.6c0-1.8,0-3.6-0.2-5.4
	c-0.1-0.7-0.2-1.3-0.4-2c-0.2-0.6-0.4-1.2-0.8-1.6l-0.8,0.6l0.8-0.6c-0.4-0.5-0.8-0.9-1.4-1.2c-1.4-0.7-3-0.9-4.6-0.9h-18.5v14.7
	h-10V87.8h34.6c1.8-0.1,3.6,0.1,5.3,0.6c1.8,0.7,3.3,2,4.1,3.8l0,0c0.8,1.9,1.4,3.9,1.6,6c0.3,2.7,0.5,5.4,0.5,8.1
	c0,2.3-0.1,4.6-0.5,6.8l0,0L234.5,113.3z M222.8,111.5l-0.9-0.4c-0.2,0.4-0.5,0.8-0.9,1.1c-0.6,0.4-1.3,0.7-2,0.8
	c-0.7,0.1-1.5,0.2-2.2,0.2h-17v-11.5h16.3h1.3c0.9,0,1.8,0.1,2.7,0.4c0.4,0.1,0.7,0.4,1,0.6c0.3,0.3,0.6,0.7,0.7,1.2
	c0.2,0.5,0.3,1,0.3,1.6c0.1,0.7,0.1,1.5,0.1,2.2c0,0.7,0,1.4-0.1,2.2c0,0.5-0.1,0.9-0.3,1.3L222.8,111.5l-1-0.4L222.8,111.5l0.9,0.4
	c0.2-0.6,0.4-1.3,0.4-1.9c0.1-0.8,0.1-1.6,0.1-2.4c0-0.8,0-1.6-0.1-2.4c-0.1-0.7-0.2-1.4-0.4-2c-0.3-0.7-0.7-1.4-1.2-1.9
	c-0.7-0.7-1.6-1.1-2.6-1.3c-0.8-0.2-1.7-0.3-2.5-0.2h-1.3h-18.3v15.5h19c1.2,0,2.4-0.1,3.6-0.4c0.7-0.2,1.3-0.6,1.9-1
	c0.6-0.5,1.1-1.1,1.5-1.8l0,0L222.8,111.5z M289.5,116.7l0.9-0.4c-0.6-1.7-1.7-3.3-3.1-4.5c-1.8-1.4-4.1-2.3-6.4-2.4
	c-2.1-0.3-4.1-0.2-5.4-0.3l0,0l-14.8-0.5h-1.1c-1.1,0-2.2-0.1-3.2-0.3c-0.4-0.1-0.8-0.3-1.2-0.5c-0.3-0.2-0.5-0.5-0.7-0.9l-0.9,0.4
	l0.9-0.4c-0.1-0.3-0.1-0.5-0.2-0.8c0-0.4-0.1-0.8-0.1-1.2c0-0.3,0-0.6,0.1-0.9c0-0.2,0.1-0.4,0.1-0.5l0,0c0.2-0.7,0.6-1.3,1.3-1.6
	c0.6-0.2,1.2-0.3,1.8-0.3h1.2h13.5v-1v1c0.6,0,1.3,0.1,1.9,0.2c0.3,0.1,0.6,0.2,0.8,0.3c0.4,0.3,0.7,0.7,0.8,1.2c0.3,1,0.5,2,0.5,3
	l0,0.9h13.7v-2.9c0-1.8,0-4-0.2-6.2c-0.1-1-0.2-2.1-0.4-3.1c-0.1-0.9-0.4-1.7-0.8-2.5l-0.9,0.4l0.9-0.4c-1.1-2.5-3-4.5-5.4-5.6
	c-1.9-0.8-3.9-1.2-5.9-1.2H257h-2.5c-2.4-0.1-4.9,0.2-7.1,1.1c-1.2,0.5-2.3,1.3-3.2,2.2c-1,1.1-1.9,2.5-2.5,3.9l0,0
	c-0.6,1.6-0.9,3.2-1.1,4.9c-0.2,2-0.4,4.1-0.4,6.2c0,2,0.1,3.9,0.3,5.9c0.2,1.6,0.5,3.1,1,4.6l0.9-0.4l-0.9,0.3
	c0.6,1.6,1.5,3.1,2.8,4.3c1.6,1.4,3.6,2.4,5.7,2.7c1.7,0.3,3.5,0.4,5.2,0.4v-1v1l15.7,0.5l0,0c1.5,0,3,0.1,4.5,0.2
	c0.5,0.1,0.9,0.2,1.3,0.4c0.3,0.2,0.5,0.4,0.6,0.8l1-0.3l-1,0.3c0.2,0.7,0.3,1.4,0.3,2.1c0,0.5-0.1,1-0.2,1.5l0.9,0.5l-0.9-0.5
	c-0.2,0.3-0.4,0.5-0.6,0.6c-0.6,0.3-1.2,0.5-1.9,0.5c-0.7,0.1-1.4,0.1-2.2,0.1H257c-0.4,0-0.7,0-1.1-0.1c-0.2,0-0.4-0.1-0.5-0.2
	c-0.3-0.3-0.5-0.6-0.6-1c-0.3-0.8-0.4-1.7-0.4-2.6l-0.1-0.9h-13.8v1v1.2c0,1.9,0.1,4.1,0.3,6.2c0.1,1.9,0.5,3.8,1.2,5.6l0,0
	c1.2,2.5,3.3,4.5,5.8,5.6c1.7,0.7,3.6,1,5.5,1H273c2.9,0.1,5.9-0.3,8.8-1c1.7-0.5,3.3-1.3,4.8-2.3c1.6-1.2,2.8-2.8,3.5-4.6l0,0
	c0.6-1.6,1.1-3.3,1.3-5c0.3-2,0.4-4,0.4-6c0-1.7-0.1-3.3-0.3-5c-0.2-1.4-0.5-2.8-0.9-4.1l0,0L289.5,116.7l-0.9,0.3
	c0.4,1.2,0.7,2.4,0.8,3.7c0.2,1.6,0.3,3.2,0.3,4.7c0,1.9-0.1,3.8-0.4,5.7c-0.2,1.5-0.6,3-1.1,4.5l0,0c-0.6,1.5-1.6,2.8-2.9,3.8
	c-1.9,1.3-4.1,2.2-6.4,2.5c-2,0.3-4,0.4-5.9,0.4h-19.9c-1.6,0-3.2-0.3-4.7-0.9c-2.1-0.9-3.8-2.5-4.8-4.6l-0.9,0.4l0.9-0.4
	c-0.6-1.6-0.9-3.2-1-4.9c-0.2-2-0.2-4.2-0.2-6v-1.2h-1v1h11.9v-1l-1,0.1c0,1,0.2,1.9,0.5,2.9c0.2,0.5,0.4,1,0.8,1.5
	c0.4,0.6,1,1,1.7,1.2c0.6,0.2,1.2,0.2,1.8,0.2h15.8c1.1,0,2.2-0.1,3.3-0.3c0.6-0.1,1.2-0.3,1.7-0.6c0.6-0.3,1-0.8,1.4-1.3l0,0
	c0.4-0.8,0.5-1.6,0.5-2.4c0-0.9-0.1-1.8-0.4-2.7l0,0c-0.2-0.7-0.7-1.4-1.4-1.8c-1-0.5-2.1-0.8-3.2-0.9c-1.1-0.1-2.4-0.1-3.6-0.1l0,0
	l-15.7-0.5l0,0c-2.2,0.1-4.5-0.2-6.6-0.8c-1.1-0.4-2.1-1-3-1.8c-1-1-1.8-2.2-2.2-3.5l0,0c-0.4-1.3-0.7-2.7-0.9-4.1
	c-0.4-3.8-0.4-7.7,0-11.6c0.2-1.5,0.5-2.9,1-4.3l0,0c0.5-1.2,1.2-2.3,2.1-3.3c1.1-1.1,2.4-1.9,3.9-2.2c1.6-0.3,3.3-0.5,4.9-0.4h2.5
	h20.5c1.7,0,3.5,0.3,5,1c2,0.9,3.5,2.6,4.4,4.6l0,0c0.3,0.6,0.5,1.3,0.6,2c0.4,3,0.6,6,0.5,9v1.9h1v-1h-11.8v1h1
	c0-1.1-0.2-2.2-0.5-3.2c-0.2-0.6-0.5-1.2-0.8-1.7c-0.5-0.7-1.3-1.2-2.1-1.4c-0.8-0.2-1.7-0.3-2.6-0.3h-13.5h-1.2
	c-0.9,0-1.8,0.1-2.7,0.5c-1.1,0.6-1.9,1.5-2.3,2.7l0.9,0.3l-0.9-0.4c-0.1,0.3-0.2,0.7-0.3,1.1c0,0.4-0.1,0.8-0.1,1.2
	c0,0.5,0,1,0.1,1.5c0,0.4,0.1,0.8,0.3,1.2v0.1c0.3,0.7,0.8,1.2,1.3,1.7c0.8,0.6,1.8,0.9,2.8,1.1c0.9,0.1,1.9,0.2,2.8,0.2h1.1v-1v1
	l14.7,0.5v-1l-0.1,1c1,0.1,2.1,0,3.4,0.1c1.9,0,3.8,0.4,5.6,1.2c2,0.9,3.5,2.6,4.2,4.6l0,0L289.5,116.7z"/>
<path class="st0" d="M311.2,11.7c-3-7.1-9.9-11.7-17.6-11.7H19.1C12.8,0,6.8,3.1,3.3,8.4C1.1,11.6,0,15.3,0,19.1v124.6
	c0,10.6,8.6,19.1,19.1,19.1c0,0,0,0,0,0h274.4c2.6,0,5.1-0.5,7.5-1.5c7.1-3,11.7-9.9,11.7-17.6V19.1C312.7,16.6,312.2,14,311.2,11.7
	z M304.9,143.7c0,6.3-5.1,11.4-11.4,11.4H19.1c-6.3,0-11.4-5.1-11.4-11.3V19.1c0-1.5,0.3-3,0.9-4.4c1.8-4.2,5.9-6.9,10.5-6.9h274.4
	c1.5,0,3,0.3,4.4,0.9c4.2,1.8,6.9,5.9,6.9,10.5V143.7z"/>
</svg>
