<svg id="Layer_1" data-name="Layer 1" xmlns="http://www.w3.org/2000/svg" viewBox="0 0 312.67 162.82"><title>jukitours</title><path d="M85.41,18.49V53.64c0,3.42.39,13.32-4.74,18.48-5,4.88-15.54,4.95-22.06,4.95H45.4c-7.15,0-13.59.29-18.88-4.88-4.89-4.8-4.35-13.24-4.35-18.48v-2H40.43c0,1.74-.47,8.66,3.26,10.26,2.18.94,17.56,1.16,19.81-.22,3.27-2,2.88-7.35,2.88-11.65V18.49Z"/><path d="M114.55,18.49V47.23c0,3.72-.47,10.34,2.48,13.18s8,2.32,10.72,2.32h15.39c1.71,0,6.91.44,9.71-2.25,2.48-2.48,2-7.5,2-12.81V18.49h18.95V53.2c0,6.62.7,13.1-4.89,18.49-6,5.67-13.67,5.38-21.83,5.38h-28c-6.68,0-12,.51-18.26-5.46-5.9-5.75-5.28-15.72-5.28-20.3V18.49Z"/><path d="M203,18.49V40h9.09l24.16-21.54h25.48L228.44,46.94,266,77.07H239L211.58,55H203v22h-19V18.49Z"/><path d="M290.52,18.49V77.07h-19V18.49Z"/><path d="M22,100.65H38.7v42.72h12V100.65h17V86.82H22Zm102.28,8c0-4.07.39-12.71-2.76-16.93-3.65-5-9.26-4.91-14-4.91H88.11c-4.73,0-10.39-.22-14,4.91-3.5,4.85-3.25,12.86-3.25,16.93v11.66c0,3.8,0,13.35,3.25,18,3.35,4.84,10.59,5.06,14.29,5.06h18.82c2.76,0,10.94-.22,14.29-5.06,3.2-4.64,2.76-13.14,2.76-18Zm-12,10.26c0,3.16-.2,6-.59,6.88-1.73,4.29-5.37,3.73-7.34,3.73H90.82c-2,0-5.61.56-7.34-3.73-.39-.84-.59-3.65-.59-6.88v-7.66c0-3.51.2-6,.59-6.88,1.73-4.22,5.37-3.73,7.34-3.73h13.51c2,0,5.61-.49,7.34,3.73.39.84.59,3.79.59,6.88Zm68.09-32.1h-12V115c0,5.12.3,10-1.28,12.36-1.77,2.6-5.07,2.18-6.16,2.18h-9.75c-1.73,0-4.88.42-6.8-2.25s-1.58-9.13-1.58-12.72V86.82h-12V118.5c0,4.42-.39,14.05,3.35,19.6,3.94,5.76,7.34,5.27,11.58,5.27H163.4c5.17,0,10,.28,13.84-5.2,3.55-5.2,3.11-11.45,3.11-17.85Zm54.09,26.48c.89-4.36.74-17.14-1.68-21.57-2.8-5.2-7.29-4.91-11.57-4.91H186.8v56.55h12V128.68h16.6c1.38,0,4.83-.21,6.11,1.62,1.43,1.83,1.18,6.6,1.18,13.07h12v-4.29c0-4.63.44-12.85-3.26-16.09a12.63,12.63,0,0,0-3.2-1.75C231.09,119.69,233.46,118.71,234.44,113.3Zm-11.63-1.83c-1.33,2.88-5.07,2.67-6.75,2.67H198.82V100.65h17.34c1.68,0,5.47-.42,6.65,2.81C223.45,105.22,223.45,110,222.81,111.47Zm66.71,5.27c-2.76-7.23-10.35-6.32-14-6.53l-14.73-.49c-2.47,0-6,.21-7.15-2.32a8.27,8.27,0,0,1-.05-4.22c1.09-3,3.55-2.53,5.22-2.53h13.46c3.25.07,4.73.64,5,5.69h11.78c0-2.88.15-10.46-1.23-13.34-2.42-5.34-7.15-6.18-10.35-6.18H257c-5.57,0-11.33-.64-14.34,6.53-1.82,4.42-1.82,16.37-.14,20.79,2.46,6.75,8.91,6.61,12.76,6.68l15.67.49c3.4.14,6.5-.21,7.29,2.1a6.58,6.58,0,0,1,0,4.36c-1.09,1.9-4.58,1.76-6.26,1.76H257.89c-2.27,0-4.39.42-4.68-4.78H241.33c0,3.72.1,9.76,1.38,12.57,2.66,5.55,8,6.05,10.4,6.05h19.81c4.09,0,13.1-.08,16.16-7.31C291.05,131.49,291.2,121.24,289.52,116.74Z"/><path d="M22,100.65v1H37.7v42.72h14V101.65h17V85.82H21v15.83h1v-1h1V87.82H66.77V99.65h-17v42.72h-10V99.65H22v1h0Zm102.28,8h1c0-.8,0-1.8,0-2.92a53.44,53.44,0,0,0-.46-7.55,15.79,15.79,0,0,0-2.52-7.06l-.8.6.81-.59a12.05,12.05,0,0,0-7-4.65,29,29,0,0,0-7.47-.67H87a26.26,26.26,0,0,0-7.16.73,11.59,11.59,0,0,0-6.56,4.62l.82.57-.81-.58a18.54,18.54,0,0,0-3,8,49.85,49.85,0,0,0-.49,7.81v13.34a74.5,74.5,0,0,0,.43,8.8c.43,3.52,1.23,7.17,3,9.75A10.51,10.51,0,0,0,76.75,142c3.94,2.27,8.85,2.34,11.66,2.36h18.82a33,33,0,0,0,7.15-.74,17.39,17.39,0,0,0,4.36-1.61,10.24,10.24,0,0,0,3.6-3.15,17.17,17.17,0,0,0,2.5-7.19,53.65,53.65,0,0,0,.46-7.76c0-1.33,0-2.56,0-3.6V108.66h-2v11.66c0,1.07,0,2.29,0,3.6a51.49,51.49,0,0,1-.44,7.47,15.23,15.23,0,0,1-2.16,6.35,8.32,8.32,0,0,1-2.92,2.52,17.59,17.59,0,0,1-5.84,1.79,33.7,33.7,0,0,1-4.71.32H88.41a30,30,0,0,1-7-.69,13.67,13.67,0,0,1-3.62-1.4,8.74,8.74,0,0,1-2.81-2.54c-1.43-2.05-2.26-5.49-2.65-8.86a71.47,71.47,0,0,1-.42-8.56V107a49.64,49.64,0,0,1,.46-7.5,16.86,16.86,0,0,1,2.6-7.16h0a9.57,9.57,0,0,1,5.47-3.85A24.54,24.54,0,0,1,87,87.81h20.89a27.46,27.46,0,0,1,7,.6,10.07,10.07,0,0,1,5.83,3.9h0a14.08,14.08,0,0,1,2.15,6.16,51,51,0,0,1,.43,7.25c0,1.1,0,2.09,0,2.92Zm-12,10.26h-1c0,1.56-.05,3-.15,4.23a14.39,14.39,0,0,1-.17,1.5,3.21,3.21,0,0,1-.18.73v.05a4.56,4.56,0,0,1-2.24,2.62,6.3,6.3,0,0,1-2.76.5l-1.41,0H90.82l-1.41,0a6.3,6.3,0,0,1-2.76-.5,4.56,4.56,0,0,1-2.24-2.62v-.05a3.22,3.22,0,0,1-.18-.72,40.3,40.3,0,0,1-.32-5.74v-7.66c0-1.74,0-3.22.15-4.36a12.39,12.39,0,0,1,.17-1.41,2.88,2.88,0,0,1,.18-.69v0a4.58,4.58,0,0,1,2.3-2.63,6.58,6.58,0,0,1,2.84-.49h16a6.58,6.58,0,0,1,2.84.49,4.58,4.58,0,0,1,2.3,2.63v0a3,3,0,0,1,.18.74,41.41,41.41,0,0,1,.32,5.72v7.66h2v-7.66c0-1.56-.05-3.1-.15-4.36,0-.64-.12-1.2-.2-1.69a4.92,4.92,0,0,0-.34-1.26l-.9.43.92-.38a6.58,6.58,0,0,0-3.31-3.68,8.48,8.48,0,0,0-3.68-.68h-16a8.48,8.48,0,0,0-3.68.68A6.58,6.58,0,0,0,82.56,104l.92.38-.9-.43a5.39,5.39,0,0,0-.34,1.19,38.82,38.82,0,0,0-.35,6.12v7.66c0,1.64,0,3.17.15,4.42,0,.63.12,1.18.2,1.66a4.69,4.69,0,0,0,.34,1.23l.9-.43-.92.38a6.54,6.54,0,0,0,3.22,3.67,8.22,8.22,0,0,0,3.63.7l1.41,0h13.51l1.41,0a8.24,8.24,0,0,0,3.63-.7,6.54,6.54,0,0,0,3.22-3.67l-.92-.38.9.43a4.84,4.84,0,0,0,.34-1.25,41,41,0,0,0,.35-6.06Zm68.09-32.1v-1h-13V115c0,1.41,0,2.79,0,4.09a38.4,38.4,0,0,1-.22,4.67,7.44,7.44,0,0,1-.92,3l.83.55-.82-.56a3.8,3.8,0,0,1-2,1.45,7.16,7.16,0,0,1-2.24.31l-1.14,0h-9.75l-1.46,0a7.83,7.83,0,0,1-2.45-.32,4.08,4.08,0,0,1-2.08-1.53l-.81.58.82-.57A9.4,9.4,0,0,1,144,122.8a43.71,43.71,0,0,1-.26-5.26c0-1.09,0-2.1,0-3V85.82h-14V118.5c0,.76,0,1.69,0,2.73a58.8,58.8,0,0,0,.53,8.71,21.46,21.46,0,0,0,3,8.72h0a11,11,0,0,0,10.6,5.72h21a22.18,22.18,0,0,0,7-.79,11.94,11.94,0,0,0,6.27-4.84h0a18,18,0,0,0,2.78-7.07,42.81,42.81,0,0,0,.51-7.53c0-1.26,0-2.54,0-3.81V85.82h-1v1h-1v33.5c0,1.29,0,2.56,0,3.81a40.42,40.42,0,0,1-.48,7.17,15.86,15.86,0,0,1-2.47,6.3h0a10,10,0,0,1-5.24,4.08,20.71,20.71,0,0,1-6.35.69h-21a9.07,9.07,0,0,1-8.94-4.85h0a19.5,19.5,0,0,1-2.68-7.9,57.82,57.82,0,0,1-.51-8.41c0-1,0-2,0-2.73V87.82h10v26.74c0,.85,0,1.87,0,3a44.8,44.8,0,0,0,.28,5.51,11.13,11.13,0,0,0,1.49,4.79h0a6,6,0,0,0,3.07,2.26,9.55,9.55,0,0,0,3.08.43l1.46,0h9.75c.21,0,.64,0,1.14,0a8.9,8.9,0,0,0,2.88-.42,5.71,5.71,0,0,0,3-2.22h0a9.19,9.19,0,0,0,1.23-3.89,39.9,39.9,0,0,0,.24-4.93c0-1.32,0-2.7,0-4.09V87.82h11v-1h0Zm54.09,26.48,1,.2a40.17,40.17,0,0,0,.52-7.24,66,66,0,0,0-.51-8.32,20.84,20.84,0,0,0-1.79-6.69h0a9.45,9.45,0,0,0-5.19-4.69,17.75,17.75,0,0,0-6-.76H185.8v58.55h14V129.68h16.56a11.93,11.93,0,0,1,2.57.23,4.35,4.35,0,0,1,1.09.4,1.82,1.82,0,0,1,.67.57l0,0v0a2.85,2.85,0,0,1,.47,1,12.5,12.5,0,0,1,.42,2.79c.08,1.16.1,2.52.1,4.05s0,2.95,0,4.62v1h14v-5.29c0-.88,0-1.91,0-3a41.67,41.67,0,0,0-.53-7.46,10.94,10.94,0,0,0-3.08-6.36h0a9,9,0,0,0-1.56-1c-.56-.29-1.17-.56-1.88-.88l-.41.92.48.87a15.63,15.63,0,0,0,4-2.7,11.08,11.08,0,0,0,2.66-5.93l-1-.18,1,.2-1-.2-1-.18a9,9,0,0,1-2.14,4.91,13.79,13.79,0,0,1-3.52,2.33l-1.77,1,1.85.82c.71.32,1.28.57,1.76.82a6.57,6.57,0,0,1,1.2.79l.64-.77-.65.76a9,9,0,0,1,2.42,5.21,39.32,39.32,0,0,1,.5,7.1c0,1.09,0,2.11,0,3v3.29h-11v1h1c0-1.66,0-3.2,0-4.62a47.58,47.58,0,0,0-.21-5.37,11.64,11.64,0,0,0-.4-2,4.87,4.87,0,0,0-.8-1.65l-.79.62.82-.57a3.92,3.92,0,0,0-1.35-1.19,10.06,10.06,0,0,0-4.62-.87H197.82v14.69h-10V87.82h34.65a15.84,15.84,0,0,1,5.32.64,7.43,7.43,0,0,1,4.11,3.76h0a19,19,0,0,1,1.55,6,61.38,61.38,0,0,1,.5,8.05,39.2,39.2,0,0,1-.48,6.84h0Zm-11.63-1.83-.91-.42a2.81,2.81,0,0,1-.87,1.11,4.56,4.56,0,0,1-2,.82,12.57,12.57,0,0,1-2.23.17h-17V101.65h16.34l1.27,0a7.71,7.71,0,0,1,2.68.39,3.24,3.24,0,0,1,1,.64,2.87,2.87,0,0,1,.72,1.15,6.68,6.68,0,0,1,.31,1.55,21.94,21.94,0,0,1,.11,2.21,20.21,20.21,0,0,1-.11,2.16,5.64,5.64,0,0,1-.28,1.35l.91.39-.91-.42.91.42.92.4a7.07,7.07,0,0,0,.44-1.91,22.34,22.34,0,0,0,.12-2.39,23.68,23.68,0,0,0-.12-2.43,9,9,0,0,0-.42-2,4.91,4.91,0,0,0-1.22-1.9,5.47,5.47,0,0,0-2.6-1.34,11.44,11.44,0,0,0-2.5-.25l-1.27,0H197.82v15.49h19a12.51,12.51,0,0,0,3.57-.44,6.07,6.07,0,0,0,1.89-1,5,5,0,0,0,1.46-1.85h0Zm66.71,5.27.94-.36a10.35,10.35,0,0,0-3.15-4.46,12.26,12.26,0,0,0-6.36-2.45c-2.11-.26-4.08-.18-5.36-.26h0l-14.76-.49h-1.13a12.69,12.69,0,0,1-3.24-.31,3.52,3.52,0,0,1-1.17-.54,2.2,2.2,0,0,1-.7-.88l-.92.41.94-.36a4.12,4.12,0,0,1-.17-.79,9.38,9.38,0,0,1-.07-1.21,6.46,6.46,0,0,1,.05-.92,2.08,2.08,0,0,1,.12-.54v0a2.6,2.6,0,0,1,1.27-1.59,4.12,4.12,0,0,1,1.8-.31l1.21,0h13.46v-1l0,1a10.22,10.22,0,0,1,1.91.18,2.65,2.65,0,0,1,.84.35,2.28,2.28,0,0,1,.82,1.21,11.55,11.55,0,0,1,.49,3l.05.94h13.72v-2.92c0-1.76,0-4-.19-6.21a30.83,30.83,0,0,0-.39-3.1,10.57,10.57,0,0,0-.75-2.54l-.9.43.91-.41A10.87,10.87,0,0,0,283.39,87a13.85,13.85,0,0,0-5.89-1.18H257l-2.5,0a17.92,17.92,0,0,0-7.13,1.07,9.67,9.67,0,0,0-3.17,2.19,12.86,12.86,0,0,0-2.46,3.9h0a19.85,19.85,0,0,0-1.11,4.87,50.52,50.52,0,0,0-.35,6.17,49.74,49.74,0,0,0,.32,5.87,20.19,20.19,0,0,0,1,4.62l.94-.36-.94.35a10.67,10.67,0,0,0,2.75,4.26,11.15,11.15,0,0,0,5.69,2.68,30.43,30.43,0,0,0,5.24.39l0-1,0,1,15.66.5h0a42.34,42.34,0,0,1,4.51.22,3.5,3.5,0,0,1,1.29.44,1.34,1.34,0,0,1,.59.77l.95-.33-.95.31a7.25,7.25,0,0,1,.32,2.11,3.65,3.65,0,0,1-.25,1.47l.88.47-.87-.5a1.56,1.56,0,0,1-.64.6,5,5,0,0,1-1.85.54,16.41,16.41,0,0,1-2.17.12H257a5,5,0,0,1-1.11-.09,1.4,1.4,0,0,1-.54-.23,2,2,0,0,1-.65-1,8.51,8.51,0,0,1-.44-2.57l-.06-.94h-13.8l0,1v1.19c0,1.88.06,4.12.26,6.24a19.08,19.08,0,0,0,1.21,5.57h0a11.06,11.06,0,0,0,5.83,5.59,14.58,14.58,0,0,0,5.47,1h19.81a31.17,31.17,0,0,0,8.75-1,14.43,14.43,0,0,0,4.78-2.33,11.23,11.23,0,0,0,3.55-4.6h0a20.87,20.87,0,0,0,1.27-5,43.37,43.37,0,0,0,.41-6,39.48,39.48,0,0,0-.3-5,19.31,19.31,0,0,0-.92-4.1h0l-.94.36-.94.35a17,17,0,0,1,.82,3.65,39.13,39.13,0,0,1,.28,4.74,40.43,40.43,0,0,1-.39,5.71,18.42,18.42,0,0,1-1.13,4.47h0a9.13,9.13,0,0,1-2.93,3.79,14.37,14.37,0,0,1-6.37,2.51,35.53,35.53,0,0,1-5.94.4H253.11a12.38,12.38,0,0,1-4.71-.87,9,9,0,0,1-4.79-4.61l-.9.43.91-.41a17.43,17.43,0,0,1-1-4.93c-.19-2-.25-4.21-.25-6v-1.17h-1v1h11.88v-1l-1,.06a11.84,11.84,0,0,0,.47,2.89,4.85,4.85,0,0,0,.76,1.47,3.3,3.3,0,0,0,1.73,1.16,6.24,6.24,0,0,0,1.78.2h15.76a15.45,15.45,0,0,0,3.31-.29,6,6,0,0,0,1.71-.63,3.69,3.69,0,0,0,1.38-1.34h0a5.3,5.3,0,0,0,.49-2.42,9.22,9.22,0,0,0-.42-2.72h0a3.34,3.34,0,0,0-1.39-1.8,6.71,6.71,0,0,0-3.18-.86c-1.15-.09-2.38-.07-3.62-.12h0l-15.68-.49h0a21.88,21.88,0,0,1-6.6-.78,8.41,8.41,0,0,1-3-1.75,8.66,8.66,0,0,1-2.23-3.49h0a18.82,18.82,0,0,1-.87-4.14,53.31,53.31,0,0,1,0-11.57,18.27,18.27,0,0,1,1-4.35h0a10.64,10.64,0,0,1,2.06-3.28,7.81,7.81,0,0,1,3.94-2.21,20.73,20.73,0,0,1,4.91-.44l2.5,0h20.5a11.91,11.91,0,0,1,5.05,1,8.85,8.85,0,0,1,4.38,4.6h0a8.41,8.41,0,0,1,.6,2,54.81,54.81,0,0,1,.54,9v1.92h1v-1H277.3v1l1,0a14.7,14.7,0,0,0-.49-3.25,5.23,5.23,0,0,0-.83-1.69,3.89,3.89,0,0,0-2.09-1.39,10.57,10.57,0,0,0-2.59-.31H258.82l-1.21,0a6,6,0,0,0-2.69.52,4.6,4.6,0,0,0-2.26,2.69l.94.34-.92-.39a4.19,4.19,0,0,0-.26,1.07,9.12,9.12,0,0,0-.07,1.18,11.45,11.45,0,0,0,.09,1.46,5.74,5.74,0,0,0,.28,1.25v.06a4.21,4.21,0,0,0,1.34,1.67,6.29,6.29,0,0,0,2.77,1.06,17.43,17.43,0,0,0,2.83.18h1.12v-1l0,1,14.73.49,0-1-.06,1c1,.05,2.12,0,3.35.09a14.55,14.55,0,0,1,5.6,1.16,7.94,7.94,0,0,1,4.17,4.64h0Z"/><path d="M311.17,11.68A19.15,19.15,0,0,0,293.54,0H19.13A19.06,19.06,0,0,0,3.27,8.43,19.1,19.1,0,0,0,0,19.13V143.69a19.13,19.13,0,0,0,19.13,19.13H293.54a18.92,18.92,0,0,0,7.45-1.5,19.15,19.15,0,0,0,11.68-17.63V19.13A19.1,19.1,0,0,0,311.17,11.68Zm-6.27,132a11.36,11.36,0,0,1-11.36,11.36H19.13A11.36,11.36,0,0,1,7.77,143.69V19.13a11.36,11.36,0,0,1,.89-4.42A11.37,11.37,0,0,1,19.13,7.77H293.54a11.19,11.19,0,0,1,4.42.9,11.34,11.34,0,0,1,6.94,10.46Z"/></svg>